<svg width="40" height="40" viewBox="0 0 40 40" fill="none" xmlns="http://www.w3.org/2000/svg">
<circle cx="19.65" cy="19.65" r="15.15" stroke="#125365" stroke-width="3"/>
<path d="M24.7763 16.0624C25.2018 15.6368 25.2018 14.9458 24.7763 14.5203C24.3508 14.0948 23.6598 14.0948 23.2343 14.5203L19.6498 18.1082L16.0619 14.5237C15.6364 14.0982 14.9453 14.0982 14.5198 14.5237C14.0943 14.9492 14.0943 15.6402 14.5198 16.0658L18.1077 19.6503L14.5232 23.2382C14.0977 23.6637 14.0977 24.3547 14.5232 24.7802C14.9487 25.2057 15.6398 25.2057 16.0653 24.7802L19.6498 21.1923L23.2377 24.7768C23.6632 25.2023 24.3542 25.2023 24.7797 24.7768C25.2052 24.3513 25.2052 23.6603 24.7797 23.2348L21.1918 19.6503L24.7763 16.0624Z" fill="#125365" stroke="#125365"/>
</svg>
